<mxfile host="Electron" agent="Mozilla/5.0 (Macintosh; Intel Mac OS X 10_15_7) AppleWebKit/537.36 (KHTML, like Gecko) draw.io/25.0.2 Chrome/128.0.6613.186 Electron/32.2.5 Safari/537.36" version="25.0.2">
  <diagram name="Page-1" id="-UelpCdYEey4y5baOnSz">
    <mxGraphModel dx="2059" dy="1216" grid="0" gridSize="10" guides="1" tooltips="1" connect="1" arrows="1" fold="1" page="0" pageScale="1" pageWidth="827" pageHeight="1169" math="0" shadow="0">
      <root>
        <mxCell id="0" />
        <mxCell id="-plp4mE1TCrz63QN9HbG-12" value="Background Image" parent="0" />
        <mxCell id="-plp4mE1TCrz63QN9HbG-13" value="" style="rounded=0;whiteSpace=wrap;html=1;fillColor=#CCCCCC;fontColor=#333333;strokeColor=#E6E6E6;" parent="-plp4mE1TCrz63QN9HbG-12" vertex="1">
          <mxGeometry x="-605" y="-124" width="1472" height="588" as="geometry" />
        </mxCell>
        <mxCell id="-plp4mE1TCrz63QN9HbG-14" value="" style="endArrow=none;dashed=1;html=1;rounded=0;fontSize=12;startSize=8;endSize=8;curved=1;entryX=0;entryY=0.467;entryDx=0;entryDy=0;entryPerimeter=0;exitX=0;exitY=0.406;exitDx=0;exitDy=0;exitPerimeter=0;" parent="-plp4mE1TCrz63QN9HbG-12" source="-plp4mE1TCrz63QN9HbG-13" target="WSuv4SzaL3Qnk7HgxCXB-33" edge="1">
          <mxGeometry width="50" height="50" relative="1" as="geometry">
            <mxPoint x="-587" y="136" as="sourcePoint" />
            <mxPoint x="-537" y="86" as="targetPoint" />
          </mxGeometry>
        </mxCell>
        <mxCell id="1" parent="0" />
        <mxCell id="WSuv4SzaL3Qnk7HgxCXB-33" value="MPLS Backbone" style="rounded=0;whiteSpace=wrap;html=1;fillColor=#b1ddf0;strokeColor=#10739e;verticalAlign=bottom;" parent="1" vertex="1">
          <mxGeometry x="-216" y="-68" width="828" height="387" as="geometry" />
        </mxCell>
        <mxCell id="WSuv4SzaL3Qnk7HgxCXB-26" value="MPLS Core" style="rounded=0;whiteSpace=wrap;html=1;fillColor=#b0e3e6;strokeColor=#0e8088;verticalAlign=bottom;" parent="1" vertex="1">
          <mxGeometry x="9" y="-32" width="373" height="302" as="geometry" />
        </mxCell>
        <mxCell id="WSuv4SzaL3Qnk7HgxCXB-204" value="" style="sketch=0;points=[[0.5,0,0],[1,0.5,0],[0.5,1,0],[0,0.5,0],[0.145,0.145,0],[0.8555,0.145,0],[0.855,0.8555,0],[0.145,0.855,0]];verticalLabelPosition=bottom;html=1;verticalAlign=top;aspect=fixed;align=center;pointerEvents=1;shape=mxgraph.cisco19.rect;prIcon=router;fillColor=#FAFAFA;strokeColor=#0066CC;fontSize=8;" parent="1" vertex="1">
          <mxGeometry x="11" y="340" width="50" height="50" as="geometry" />
        </mxCell>
        <mxCell id="WSuv4SzaL3Qnk7HgxCXB-205" value="P routers" style="text;html=1;align=center;verticalAlign=middle;resizable=0;points=[];autosize=1;strokeColor=none;fillColor=none;fontSize=10;" parent="1" vertex="1">
          <mxGeometry x="58" y="353" width="58" height="24" as="geometry" />
        </mxCell>
        <mxCell id="WSuv4SzaL3Qnk7HgxCXB-206" value="" style="sketch=0;points=[[0.5,0,0],[1,0.5,0],[0.5,1,0],[0,0.5,0],[0.145,0.145,0],[0.8555,0.145,0],[0.855,0.8555,0],[0.145,0.855,0]];verticalLabelPosition=bottom;html=1;verticalAlign=top;aspect=fixed;align=center;pointerEvents=1;shape=mxgraph.cisco19.rect;prIcon=router;fillColor=#FAFAFA;strokeColor=#005073;fontSize=8;" parent="1" vertex="1">
          <mxGeometry x="154" y="340" width="50" height="50" as="geometry" />
        </mxCell>
        <mxCell id="WSuv4SzaL3Qnk7HgxCXB-207" value="PE routers" style="text;html=1;align=center;verticalAlign=middle;resizable=0;points=[];autosize=1;strokeColor=none;fillColor=none;fontSize=10;" parent="1" vertex="1">
          <mxGeometry x="200.5" y="353" width="65" height="24" as="geometry" />
        </mxCell>
        <mxCell id="WSuv4SzaL3Qnk7HgxCXB-208" value="" style="sketch=0;points=[[0.5,0,0],[1,0.5,0],[0.5,1,0],[0,0.5,0],[0.145,0.145,0],[0.8555,0.145,0],[0.855,0.8555,0],[0.145,0.855,0]];verticalLabelPosition=bottom;html=1;verticalAlign=top;aspect=fixed;align=center;pointerEvents=1;shape=mxgraph.cisco19.rect;prIcon=router;fillColor=#FAFAFA;strokeColor=#67AB9F;fontSize=8;" parent="1" vertex="1">
          <mxGeometry x="294" y="340" width="50" height="50" as="geometry" />
        </mxCell>
        <mxCell id="WSuv4SzaL3Qnk7HgxCXB-209" value="CE routers" style="text;html=1;align=center;verticalAlign=middle;resizable=0;points=[];autosize=1;strokeColor=none;fillColor=none;fontSize=10;" parent="1" vertex="1">
          <mxGeometry x="341" y="353" width="66" height="24" as="geometry" />
        </mxCell>
        <mxCell id="WSuv4SzaL3Qnk7HgxCXB-210" value="" style="sketch=0;points=[[0.5,0,0],[1,0.5,0],[0.5,1,0],[0,0.5,0],[0.145,0.145,0],[0.8555,0.145,0],[0.855,0.8555,0],[0.145,0.855,0]];verticalLabelPosition=bottom;html=1;verticalAlign=top;aspect=fixed;align=center;pointerEvents=1;shape=mxgraph.cisco19.rect;prIcon=router_with_firewall;fillColor=#FAFAFA;strokeColor=#67AB9F;fontSize=8;" parent="1" vertex="1">
          <mxGeometry x="440" y="340" width="50" height="50" as="geometry" />
        </mxCell>
        <mxCell id="WSuv4SzaL3Qnk7HgxCXB-211" value="CE Firewall" style="text;html=1;align=center;verticalAlign=middle;resizable=0;points=[];autosize=1;strokeColor=none;fillColor=none;fontSize=10;" parent="1" vertex="1">
          <mxGeometry x="487" y="353" width="69" height="24" as="geometry" />
        </mxCell>
        <mxCell id="-plp4mE1TCrz63QN9HbG-1" value="VRF NAME" style="shape=process;whiteSpace=wrap;html=1;backgroundOutline=1;fillColor=#eeeeee;strokeColor=#36393d;fontSize=9;" parent="1" vertex="1">
          <mxGeometry x="110" y="408.5" width="77" height="21" as="geometry" />
        </mxCell>
        <mxCell id="-plp4mE1TCrz63QN9HbG-2" value="VRF" style="text;html=1;align=left;verticalAlign=middle;resizable=0;points=[];autosize=1;strokeColor=none;fillColor=none;fontSize=10;" parent="1" vertex="1">
          <mxGeometry x="194" y="407" width="38" height="24" as="geometry" />
        </mxCell>
        <mxCell id="-plp4mE1TCrz63QN9HbG-3" value="VLAN ID" style="ellipse;whiteSpace=wrap;html=1;fontSize=7;fillColor=#eeeeee;strokeColor=#36393d;" parent="1" vertex="1">
          <mxGeometry x="225.5" y="409" width="44" height="20" as="geometry" />
        </mxCell>
        <mxCell id="-plp4mE1TCrz63QN9HbG-5" value="Vlan" style="text;html=1;align=left;verticalAlign=middle;resizable=0;points=[];autosize=1;strokeColor=none;fillColor=none;fontSize=10;" parent="1" vertex="1">
          <mxGeometry x="273" y="407" width="38" height="24" as="geometry" />
        </mxCell>
        <mxCell id="-plp4mE1TCrz63QN9HbG-7" value="Lo1018" style="ellipse;whiteSpace=wrap;html=1;aspect=fixed;fillColor=#eeeeee;strokeColor=#36393d;fontSize=6;" parent="1" vertex="1">
          <mxGeometry x="307" y="405" width="28" height="28" as="geometry" />
        </mxCell>
        <mxCell id="-plp4mE1TCrz63QN9HbG-8" value="Loopback" style="text;html=1;align=left;verticalAlign=middle;resizable=0;points=[];autosize=1;strokeColor=none;fillColor=none;fontSize=10;" parent="1" vertex="1">
          <mxGeometry x="335" y="407" width="61" height="24" as="geometry" />
        </mxCell>
        <mxCell id="JTRN2UEG_rgVW73hcwAd-14" value="eth5.101" style="shape=parallelogram;perimeter=parallelogramPerimeter;whiteSpace=wrap;html=1;fixedSize=1;fontSize=9;fillColor=#eeeeee;strokeColor=#36393d;" parent="1" vertex="1">
          <mxGeometry x="-45" y="410.75" width="70" height="16.5" as="geometry" />
        </mxCell>
        <mxCell id="JTRN2UEG_rgVW73hcwAd-15" value="L3 Sub-interface" style="text;html=1;align=left;verticalAlign=middle;resizable=0;points=[];autosize=1;strokeColor=none;fillColor=none;fontSize=10;" parent="1" vertex="1">
          <mxGeometry x="25" y="407" width="91" height="24" as="geometry" />
        </mxCell>
        <mxCell id="JTRN2UEG_rgVW73hcwAd-22" value="s1-ce04" style="text;html=1;align=center;verticalAlign=middle;resizable=0;points=[];autosize=1;strokeColor=none;fillColor=none;fontSize=11;fontFamily=Verdana;" parent="1" vertex="1">
          <mxGeometry x="-456" y="284" width="62" height="25" as="geometry" />
        </mxCell>
        <mxCell id="WSuv4SzaL3Qnk7HgxCXB-57" value="Topology" parent="0" />
        <mxCell id="WSuv4SzaL3Qnk7HgxCXB-58" value="" style="sketch=0;points=[[0.5,0,0],[1,0.5,0],[0.5,1,0],[0,0.5,0],[0.145,0.145,0],[0.8555,0.145,0],[0.855,0.8555,0],[0.145,0.855,0]];verticalLabelPosition=bottom;html=1;verticalAlign=top;aspect=fixed;align=center;pointerEvents=1;shape=mxgraph.cisco19.rect;prIcon=router;fillColor=#FAFAFA;strokeColor=#005073;" parent="WSuv4SzaL3Qnk7HgxCXB-57" vertex="1">
          <mxGeometry x="-239" y="-44" width="50" height="50" as="geometry" />
        </mxCell>
        <mxCell id="WSuv4SzaL3Qnk7HgxCXB-59" value="" style="sketch=0;points=[[0.5,0,0],[1,0.5,0],[0.5,1,0],[0,0.5,0],[0.145,0.145,0],[0.8555,0.145,0],[0.855,0.8555,0],[0.145,0.855,0]];verticalLabelPosition=bottom;html=1;verticalAlign=top;aspect=fixed;align=center;pointerEvents=1;shape=mxgraph.cisco19.rect;prIcon=router;fillColor=#FAFAFA;strokeColor=#005073;" parent="WSuv4SzaL3Qnk7HgxCXB-57" vertex="1">
          <mxGeometry x="-239" y="48" width="50" height="50" as="geometry" />
        </mxCell>
        <mxCell id="WSuv4SzaL3Qnk7HgxCXB-60" value="" style="sketch=0;points=[[0.5,0,0],[1,0.5,0],[0.5,1,0],[0,0.5,0],[0.145,0.145,0],[0.8555,0.145,0],[0.855,0.8555,0],[0.145,0.855,0]];verticalLabelPosition=bottom;html=1;verticalAlign=top;aspect=fixed;align=center;pointerEvents=1;shape=mxgraph.cisco19.rect;prIcon=router;fillColor=#FAFAFA;strokeColor=#005073;" parent="WSuv4SzaL3Qnk7HgxCXB-57" vertex="1">
          <mxGeometry x="-239" y="140" width="50" height="50" as="geometry" />
        </mxCell>
        <mxCell id="WSuv4SzaL3Qnk7HgxCXB-61" value="" style="sketch=0;points=[[0.5,0,0],[1,0.5,0],[0.5,1,0],[0,0.5,0],[0.145,0.145,0],[0.8555,0.145,0],[0.855,0.8555,0],[0.145,0.855,0]];verticalLabelPosition=bottom;html=1;verticalAlign=top;aspect=fixed;align=center;pointerEvents=1;shape=mxgraph.cisco19.rect;prIcon=router;fillColor=#FAFAFA;strokeColor=#005073;" parent="WSuv4SzaL3Qnk7HgxCXB-57" vertex="1">
          <mxGeometry x="-239" y="232" width="50" height="50" as="geometry" />
        </mxCell>
        <mxCell id="WSuv4SzaL3Qnk7HgxCXB-62" value="" style="sketch=0;points=[[0.5,0,0],[1,0.5,0],[0.5,1,0],[0,0.5,0],[0.145,0.145,0],[0.8555,0.145,0],[0.855,0.8555,0],[0.145,0.855,0]];verticalLabelPosition=bottom;html=1;verticalAlign=top;aspect=fixed;align=center;pointerEvents=1;shape=mxgraph.cisco19.rect;prIcon=router;fillColor=#FAFAFA;strokeColor=#FF6666;" parent="WSuv4SzaL3Qnk7HgxCXB-57" vertex="1">
          <mxGeometry x="14" y="-4" width="50" height="50" as="geometry" />
        </mxCell>
        <mxCell id="WSuv4SzaL3Qnk7HgxCXB-63" value="" style="sketch=0;points=[[0.5,0,0],[1,0.5,0],[0.5,1,0],[0,0.5,0],[0.145,0.145,0],[0.8555,0.145,0],[0.855,0.8555,0],[0.145,0.855,0]];verticalLabelPosition=bottom;html=1;verticalAlign=top;aspect=fixed;align=center;pointerEvents=1;shape=mxgraph.cisco19.rect;prIcon=router;fillColor=#FAFAFA;strokeColor=#0066CC;" parent="WSuv4SzaL3Qnk7HgxCXB-57" vertex="1">
          <mxGeometry x="14" y="197" width="50" height="50" as="geometry" />
        </mxCell>
        <mxCell id="WSuv4SzaL3Qnk7HgxCXB-64" value="" style="sketch=0;points=[[0.5,0,0],[1,0.5,0],[0.5,1,0],[0,0.5,0],[0.145,0.145,0],[0.8555,0.145,0],[0.855,0.8555,0],[0.145,0.855,0]];verticalLabelPosition=bottom;html=1;verticalAlign=top;aspect=fixed;align=center;pointerEvents=1;shape=mxgraph.cisco19.rect;prIcon=router;fillColor=#FAFAFA;strokeColor=#0066CC;" parent="WSuv4SzaL3Qnk7HgxCXB-57" vertex="1">
          <mxGeometry x="322" y="-4" width="50" height="50" as="geometry" />
        </mxCell>
        <mxCell id="WSuv4SzaL3Qnk7HgxCXB-65" value="" style="sketch=0;points=[[0.5,0,0],[1,0.5,0],[0.5,1,0],[0,0.5,0],[0.145,0.145,0],[0.8555,0.145,0],[0.855,0.8555,0],[0.145,0.855,0]];verticalLabelPosition=bottom;html=1;verticalAlign=top;aspect=fixed;align=center;pointerEvents=1;shape=mxgraph.cisco19.rect;prIcon=router;fillColor=#FAFAFA;strokeColor=#FF6666;" parent="WSuv4SzaL3Qnk7HgxCXB-57" vertex="1">
          <mxGeometry x="322" y="197" width="50" height="50" as="geometry" />
        </mxCell>
        <mxCell id="WSuv4SzaL3Qnk7HgxCXB-66" value="" style="sketch=0;points=[[0.5,0,0],[1,0.5,0],[0.5,1,0],[0,0.5,0],[0.145,0.145,0],[0.8555,0.145,0],[0.855,0.8555,0],[0.145,0.855,0]];verticalLabelPosition=bottom;html=1;verticalAlign=top;aspect=fixed;align=center;pointerEvents=1;shape=mxgraph.cisco19.rect;prIcon=router;fillColor=#FAFAFA;strokeColor=#005073;" parent="WSuv4SzaL3Qnk7HgxCXB-57" vertex="1">
          <mxGeometry x="580" y="85" width="50" height="50" as="geometry" />
        </mxCell>
        <mxCell id="WSuv4SzaL3Qnk7HgxCXB-67" style="edgeStyle=none;curved=1;rounded=0;orthogonalLoop=1;jettySize=auto;html=1;entryX=0;entryY=0.5;entryDx=0;entryDy=0;entryPerimeter=0;fontSize=12;startSize=8;endSize=8;endArrow=none;endFill=0;" parent="WSuv4SzaL3Qnk7HgxCXB-57" source="WSuv4SzaL3Qnk7HgxCXB-61" target="WSuv4SzaL3Qnk7HgxCXB-63" edge="1">
          <mxGeometry relative="1" as="geometry" />
        </mxCell>
        <mxCell id="WSuv4SzaL3Qnk7HgxCXB-68" style="edgeStyle=none;curved=1;rounded=0;orthogonalLoop=1;jettySize=auto;html=1;entryX=0;entryY=0.5;entryDx=0;entryDy=0;entryPerimeter=0;fontSize=12;startSize=8;endSize=8;endArrow=none;endFill=0;" parent="WSuv4SzaL3Qnk7HgxCXB-57" source="WSuv4SzaL3Qnk7HgxCXB-60" target="WSuv4SzaL3Qnk7HgxCXB-63" edge="1">
          <mxGeometry relative="1" as="geometry" />
        </mxCell>
        <mxCell id="WSuv4SzaL3Qnk7HgxCXB-69" style="edgeStyle=none;curved=1;rounded=0;orthogonalLoop=1;jettySize=auto;html=1;entryX=0;entryY=0.5;entryDx=0;entryDy=0;entryPerimeter=0;fontSize=12;startSize=8;endSize=8;endArrow=none;endFill=0;" parent="WSuv4SzaL3Qnk7HgxCXB-57" source="WSuv4SzaL3Qnk7HgxCXB-59" target="WSuv4SzaL3Qnk7HgxCXB-62" edge="1">
          <mxGeometry relative="1" as="geometry" />
        </mxCell>
        <mxCell id="WSuv4SzaL3Qnk7HgxCXB-70" style="edgeStyle=none;curved=1;rounded=0;orthogonalLoop=1;jettySize=auto;html=1;entryX=0;entryY=0.5;entryDx=0;entryDy=0;entryPerimeter=0;fontSize=12;startSize=8;endSize=8;endArrow=none;endFill=0;" parent="WSuv4SzaL3Qnk7HgxCXB-57" source="WSuv4SzaL3Qnk7HgxCXB-58" target="WSuv4SzaL3Qnk7HgxCXB-62" edge="1">
          <mxGeometry relative="1" as="geometry" />
        </mxCell>
        <mxCell id="WSuv4SzaL3Qnk7HgxCXB-71" style="edgeStyle=none;curved=1;rounded=0;orthogonalLoop=1;jettySize=auto;html=1;fontSize=12;startSize=8;endSize=8;endArrow=none;endFill=0;strokeWidth=1;" parent="WSuv4SzaL3Qnk7HgxCXB-57" source="WSuv4SzaL3Qnk7HgxCXB-62" target="WSuv4SzaL3Qnk7HgxCXB-64" edge="1">
          <mxGeometry relative="1" as="geometry">
            <mxPoint x="252" y="21" as="targetPoint" />
          </mxGeometry>
        </mxCell>
        <mxCell id="WSuv4SzaL3Qnk7HgxCXB-72" style="edgeStyle=none;curved=1;rounded=0;orthogonalLoop=1;jettySize=auto;html=1;entryX=0;entryY=0.5;entryDx=0;entryDy=0;entryPerimeter=0;fontSize=12;startSize=8;endSize=8;endArrow=none;endFill=0;strokeWidth=1;" parent="WSuv4SzaL3Qnk7HgxCXB-57" source="WSuv4SzaL3Qnk7HgxCXB-63" target="WSuv4SzaL3Qnk7HgxCXB-65" edge="1">
          <mxGeometry relative="1" as="geometry" />
        </mxCell>
        <mxCell id="WSuv4SzaL3Qnk7HgxCXB-73" style="edgeStyle=none;curved=1;rounded=0;orthogonalLoop=1;jettySize=auto;html=1;fontSize=12;startSize=8;endSize=8;entryX=0.5;entryY=1;entryDx=0;entryDy=0;entryPerimeter=0;endArrow=none;endFill=0;strokeWidth=1;" parent="WSuv4SzaL3Qnk7HgxCXB-57" source="WSuv4SzaL3Qnk7HgxCXB-63" target="WSuv4SzaL3Qnk7HgxCXB-62" edge="1">
          <mxGeometry relative="1" as="geometry">
            <mxPoint x="325" y="31" as="targetPoint" />
          </mxGeometry>
        </mxCell>
        <mxCell id="WSuv4SzaL3Qnk7HgxCXB-74" style="edgeStyle=none;curved=1;rounded=0;orthogonalLoop=1;jettySize=auto;html=1;entryX=0.5;entryY=0;entryDx=0;entryDy=0;entryPerimeter=0;fontSize=12;startSize=8;endSize=8;endArrow=none;endFill=0;strokeWidth=1;" parent="WSuv4SzaL3Qnk7HgxCXB-57" source="WSuv4SzaL3Qnk7HgxCXB-64" target="WSuv4SzaL3Qnk7HgxCXB-65" edge="1">
          <mxGeometry relative="1" as="geometry" />
        </mxCell>
        <mxCell id="WSuv4SzaL3Qnk7HgxCXB-75" style="edgeStyle=none;curved=1;rounded=0;orthogonalLoop=1;jettySize=auto;html=1;entryX=0.145;entryY=0.145;entryDx=0;entryDy=0;entryPerimeter=0;fontSize=12;startSize=8;endSize=8;endArrow=none;endFill=0;strokeWidth=1;" parent="WSuv4SzaL3Qnk7HgxCXB-57" source="WSuv4SzaL3Qnk7HgxCXB-62" target="WSuv4SzaL3Qnk7HgxCXB-65" edge="1">
          <mxGeometry relative="1" as="geometry" />
        </mxCell>
        <mxCell id="WSuv4SzaL3Qnk7HgxCXB-76" style="edgeStyle=none;curved=1;rounded=0;orthogonalLoop=1;jettySize=auto;html=1;entryX=0;entryY=0.5;entryDx=0;entryDy=0;entryPerimeter=0;fontSize=12;startSize=8;endSize=8;endArrow=none;endFill=0;" parent="WSuv4SzaL3Qnk7HgxCXB-57" source="WSuv4SzaL3Qnk7HgxCXB-58" target="WSuv4SzaL3Qnk7HgxCXB-63" edge="1">
          <mxGeometry relative="1" as="geometry" />
        </mxCell>
        <mxCell id="WSuv4SzaL3Qnk7HgxCXB-77" style="edgeStyle=none;curved=1;rounded=0;orthogonalLoop=1;jettySize=auto;html=1;entryX=0;entryY=0.5;entryDx=0;entryDy=0;entryPerimeter=0;fontSize=12;startSize=8;endSize=8;endArrow=none;endFill=0;" parent="WSuv4SzaL3Qnk7HgxCXB-57" source="WSuv4SzaL3Qnk7HgxCXB-59" target="WSuv4SzaL3Qnk7HgxCXB-63" edge="1">
          <mxGeometry relative="1" as="geometry" />
        </mxCell>
        <mxCell id="WSuv4SzaL3Qnk7HgxCXB-78" style="edgeStyle=none;curved=1;rounded=0;orthogonalLoop=1;jettySize=auto;html=1;entryX=0;entryY=0.5;entryDx=0;entryDy=0;entryPerimeter=0;fontSize=12;startSize=8;endSize=8;endArrow=none;endFill=0;" parent="WSuv4SzaL3Qnk7HgxCXB-57" source="WSuv4SzaL3Qnk7HgxCXB-60" target="WSuv4SzaL3Qnk7HgxCXB-62" edge="1">
          <mxGeometry relative="1" as="geometry" />
        </mxCell>
        <mxCell id="WSuv4SzaL3Qnk7HgxCXB-79" style="edgeStyle=none;curved=1;rounded=0;orthogonalLoop=1;jettySize=auto;html=1;entryX=0;entryY=0.5;entryDx=0;entryDy=0;entryPerimeter=0;fontSize=12;startSize=8;endSize=8;endArrow=none;endFill=0;" parent="WSuv4SzaL3Qnk7HgxCXB-57" source="WSuv4SzaL3Qnk7HgxCXB-61" target="WSuv4SzaL3Qnk7HgxCXB-62" edge="1">
          <mxGeometry relative="1" as="geometry" />
        </mxCell>
        <mxCell id="WSuv4SzaL3Qnk7HgxCXB-80" style="edgeStyle=none;curved=1;rounded=0;orthogonalLoop=1;jettySize=auto;html=1;entryX=0;entryY=0.5;entryDx=0;entryDy=0;entryPerimeter=0;fontSize=12;startSize=8;endSize=8;endArrow=none;endFill=0;" parent="WSuv4SzaL3Qnk7HgxCXB-57" source="WSuv4SzaL3Qnk7HgxCXB-64" target="WSuv4SzaL3Qnk7HgxCXB-66" edge="1">
          <mxGeometry relative="1" as="geometry" />
        </mxCell>
        <mxCell id="WSuv4SzaL3Qnk7HgxCXB-81" style="edgeStyle=none;curved=1;rounded=0;orthogonalLoop=1;jettySize=auto;html=1;entryX=0;entryY=0.5;entryDx=0;entryDy=0;entryPerimeter=0;fontSize=12;startSize=8;endSize=8;endArrow=none;endFill=0;" parent="WSuv4SzaL3Qnk7HgxCXB-57" source="WSuv4SzaL3Qnk7HgxCXB-65" target="WSuv4SzaL3Qnk7HgxCXB-66" edge="1">
          <mxGeometry relative="1" as="geometry" />
        </mxCell>
        <mxCell id="WSuv4SzaL3Qnk7HgxCXB-86" value="" style="sketch=0;points=[[0.5,0,0],[1,0.5,0],[0.5,1,0],[0,0.5,0],[0.145,0.145,0],[0.8555,0.145,0],[0.855,0.8555,0],[0.145,0.855,0]];verticalLabelPosition=bottom;html=1;verticalAlign=top;aspect=fixed;align=center;pointerEvents=1;shape=mxgraph.cisco19.rect;prIcon=router_with_firewall;fillColor=#FAFAFA;strokeColor=#67AB9F;" parent="WSuv4SzaL3Qnk7HgxCXB-57" vertex="1">
          <mxGeometry x="-423" y="-4" width="50" height="50" as="geometry" />
        </mxCell>
        <mxCell id="WSuv4SzaL3Qnk7HgxCXB-90" style="edgeStyle=none;curved=1;rounded=0;orthogonalLoop=1;jettySize=auto;html=1;entryX=0;entryY=0.5;entryDx=0;entryDy=0;entryPerimeter=0;fontSize=12;startSize=8;endSize=8;endArrow=none;endFill=0;" parent="WSuv4SzaL3Qnk7HgxCXB-57" source="WSuv4SzaL3Qnk7HgxCXB-86" target="WSuv4SzaL3Qnk7HgxCXB-58" edge="1">
          <mxGeometry relative="1" as="geometry" />
        </mxCell>
        <mxCell id="WSuv4SzaL3Qnk7HgxCXB-91" style="edgeStyle=none;curved=1;rounded=0;orthogonalLoop=1;jettySize=auto;html=1;entryX=0;entryY=0.5;entryDx=0;entryDy=0;entryPerimeter=0;fontSize=12;startSize=8;endSize=8;endArrow=none;endFill=0;" parent="WSuv4SzaL3Qnk7HgxCXB-57" source="WSuv4SzaL3Qnk7HgxCXB-86" target="WSuv4SzaL3Qnk7HgxCXB-59" edge="1">
          <mxGeometry relative="1" as="geometry" />
        </mxCell>
        <mxCell id="WSuv4SzaL3Qnk7HgxCXB-95" value="" style="sketch=0;points=[[0.5,0,0],[1,0.5,0],[0.5,1,0],[0,0.5,0],[0.145,0.145,0],[0.8555,0.145,0],[0.855,0.8555,0],[0.145,0.855,0]];verticalLabelPosition=bottom;html=1;verticalAlign=top;aspect=fixed;align=center;pointerEvents=1;shape=mxgraph.cisco19.rect;prIcon=router;fillColor=#FAFAFA;strokeColor=#67AB9F;" parent="WSuv4SzaL3Qnk7HgxCXB-57" vertex="1">
          <mxGeometry x="764" y="85" width="50" height="50" as="geometry" />
        </mxCell>
        <mxCell id="WSuv4SzaL3Qnk7HgxCXB-97" style="edgeStyle=none;curved=1;rounded=0;orthogonalLoop=1;jettySize=auto;html=1;entryX=1;entryY=0.5;entryDx=0;entryDy=0;entryPerimeter=0;fontSize=12;startSize=8;endSize=8;endArrow=none;endFill=0;" parent="WSuv4SzaL3Qnk7HgxCXB-57" source="WSuv4SzaL3Qnk7HgxCXB-95" target="WSuv4SzaL3Qnk7HgxCXB-66" edge="1">
          <mxGeometry relative="1" as="geometry" />
        </mxCell>
        <mxCell id="WSuv4SzaL3Qnk7HgxCXB-151" value="" style="ellipse;whiteSpace=wrap;html=1;fillColor=none;dashed=1;" parent="WSuv4SzaL3Qnk7HgxCXB-57" vertex="1">
          <mxGeometry x="-305" y="-15" width="16" height="80" as="geometry" />
        </mxCell>
        <UserObject label="&lt;div&gt;&lt;span data-lucid-type=&quot;application/vnd.lucid.text&quot; data-lucid-content=&quot;{&amp;quot;t&amp;quot;:&amp;quot;Loopback 0 (RID): 1.0.0.x ISIS: 49.0192.0168.0000.00x.00&amp;quot;,&amp;quot;m&amp;quot;:[{&amp;quot;s&amp;quot;:0,&amp;quot;n&amp;quot;:&amp;quot;a&amp;quot;,&amp;quot;v&amp;quot;:&amp;quot;left&amp;quot;},{&amp;quot;s&amp;quot;:0,&amp;quot;n&amp;quot;:&amp;quot;c&amp;quot;,&amp;quot;v&amp;quot;:&amp;quot;333333ff&amp;quot;,&amp;quot;e&amp;quot;:56},{&amp;quot;s&amp;quot;:0,&amp;quot;n&amp;quot;:&amp;quot;s&amp;quot;,&amp;quot;v&amp;quot;:17.777777777777775,&amp;quot;e&amp;quot;:56}]}&quot;&gt;&lt;span style=&quot;color: rgb(51, 51, 51);&quot;&gt;&lt;font&gt;Underlay network: 10.255.3.0/24&lt;/font&gt;&lt;/span&gt;&lt;/span&gt;&lt;/div&gt;&lt;span data-lucid-type=&quot;application/vnd.lucid.text&quot; data-lucid-content=&quot;{&amp;quot;t&amp;quot;:&amp;quot;Loopback 0 (RID): 1.0.0.x ISIS: 49.0192.0168.0000.00x.00&amp;quot;,&amp;quot;m&amp;quot;:[{&amp;quot;s&amp;quot;:0,&amp;quot;n&amp;quot;:&amp;quot;a&amp;quot;,&amp;quot;v&amp;quot;:&amp;quot;left&amp;quot;},{&amp;quot;s&amp;quot;:0,&amp;quot;n&amp;quot;:&amp;quot;c&amp;quot;,&amp;quot;v&amp;quot;:&amp;quot;333333ff&amp;quot;,&amp;quot;e&amp;quot;:56},{&amp;quot;s&amp;quot;:0,&amp;quot;n&amp;quot;:&amp;quot;s&amp;quot;,&amp;quot;v&amp;quot;:17.777777777777775,&amp;quot;e&amp;quot;:56}]}&quot;&gt;&lt;span style=&quot;color: rgb(51, 51, 51);&quot;&gt;&lt;font&gt;Loopback 0 (RID):&amp;nbsp;&lt;br&gt;&lt;/font&gt;&lt;/span&gt;&lt;/span&gt;&lt;div&gt;&lt;span data-lucid-type=&quot;application/vnd.lucid.text&quot; data-lucid-content=&quot;{&amp;quot;t&amp;quot;:&amp;quot;Loopback 0 (RID): 1.0.0.x ISIS: 49.0192.0168.0000.00x.00&amp;quot;,&amp;quot;m&amp;quot;:[{&amp;quot;s&amp;quot;:0,&amp;quot;n&amp;quot;:&amp;quot;a&amp;quot;,&amp;quot;v&amp;quot;:&amp;quot;left&amp;quot;},{&amp;quot;s&amp;quot;:0,&amp;quot;n&amp;quot;:&amp;quot;c&amp;quot;,&amp;quot;v&amp;quot;:&amp;quot;333333ff&amp;quot;,&amp;quot;e&amp;quot;:56},{&amp;quot;s&amp;quot;:0,&amp;quot;n&amp;quot;:&amp;quot;s&amp;quot;,&amp;quot;v&amp;quot;:17.777777777777775,&amp;quot;e&amp;quot;:56}]}&quot;&gt;&lt;font style=&quot;&quot;&gt;&lt;font color=&quot;#333333&quot;&gt;P nodes: 10.255.0.0/27&lt;/font&gt;&lt;br&gt;&lt;/font&gt;&lt;/span&gt;&lt;/div&gt;&lt;div&gt;&lt;span data-lucid-type=&quot;application/vnd.lucid.text&quot; data-lucid-content=&quot;{&amp;quot;t&amp;quot;:&amp;quot;Loopback 0 (RID): 1.0.0.x ISIS: 49.0192.0168.0000.00x.00&amp;quot;,&amp;quot;m&amp;quot;:[{&amp;quot;s&amp;quot;:0,&amp;quot;n&amp;quot;:&amp;quot;a&amp;quot;,&amp;quot;v&amp;quot;:&amp;quot;left&amp;quot;},{&amp;quot;s&amp;quot;:0,&amp;quot;n&amp;quot;:&amp;quot;c&amp;quot;,&amp;quot;v&amp;quot;:&amp;quot;333333ff&amp;quot;,&amp;quot;e&amp;quot;:56},{&amp;quot;s&amp;quot;:0,&amp;quot;n&amp;quot;:&amp;quot;s&amp;quot;,&amp;quot;v&amp;quot;:17.777777777777775,&amp;quot;e&amp;quot;:56}]}&quot;&gt;&lt;font style=&quot;&quot;&gt;&lt;font color=&quot;#333333&quot;&gt;PE nodes:&amp;nbsp;&lt;/font&gt;&lt;/font&gt;&lt;/span&gt;&lt;span style=&quot;background-color: initial;&quot;&gt;&lt;font color=&quot;#333333&quot;&gt;10.255.1.0/27&lt;/font&gt;&lt;/span&gt;&lt;/div&gt;" id="WSuv4SzaL3Qnk7HgxCXB-153">
          <mxCell style="text;whiteSpace=wrap;html=1;align=right;fontSize=8;fontFamily=Helvetica;" parent="WSuv4SzaL3Qnk7HgxCXB-57" vertex="1">
            <mxGeometry x="485" y="273" width="125" height="38" as="geometry" />
          </mxCell>
        </UserObject>
        <mxCell id="WSuv4SzaL3Qnk7HgxCXB-192" value="" style="sketch=0;points=[[0.5,0,0],[1,0.5,0],[0.5,1,0],[0,0.5,0],[0.145,0.145,0],[0.8555,0.145,0],[0.855,0.8555,0],[0.145,0.855,0]];verticalLabelPosition=bottom;html=1;verticalAlign=top;aspect=fixed;align=center;pointerEvents=1;shape=mxgraph.cisco19.rect;prIcon=router;fillColor=#FAFAFA;strokeColor=#67AB9F;" parent="WSuv4SzaL3Qnk7HgxCXB-57" vertex="1">
          <mxGeometry x="-433" y="140" width="50" height="50" as="geometry" />
        </mxCell>
        <mxCell id="WSuv4SzaL3Qnk7HgxCXB-198" value="" style="sketch=0;points=[[0.5,0,0],[1,0.5,0],[0.5,1,0],[0,0.5,0],[0.145,0.145,0],[0.8555,0.145,0],[0.855,0.8555,0],[0.145,0.855,0]];verticalLabelPosition=bottom;html=1;verticalAlign=top;aspect=fixed;align=center;pointerEvents=1;shape=mxgraph.cisco19.rect;prIcon=router;fillColor=#FAFAFA;strokeColor=#67AB9F;dashed=1;dashPattern=8 8;" parent="WSuv4SzaL3Qnk7HgxCXB-57" vertex="1">
          <mxGeometry x="-433" y="232" width="50" height="50" as="geometry" />
        </mxCell>
        <mxCell id="WSuv4SzaL3Qnk7HgxCXB-200" style="edgeStyle=none;curved=1;rounded=0;orthogonalLoop=1;jettySize=auto;html=1;entryX=0;entryY=0.5;entryDx=0;entryDy=0;entryPerimeter=0;fontSize=12;startSize=8;endSize=8;endArrow=none;endFill=0;exitX=1;exitY=0.5;exitDx=0;exitDy=0;exitPerimeter=0;" parent="WSuv4SzaL3Qnk7HgxCXB-57" source="WSuv4SzaL3Qnk7HgxCXB-192" target="WSuv4SzaL3Qnk7HgxCXB-60" edge="1">
          <mxGeometry relative="1" as="geometry">
            <mxPoint x="-363" y="39" as="sourcePoint" />
            <mxPoint x="-229" y="83" as="targetPoint" />
          </mxGeometry>
        </mxCell>
        <mxCell id="WSuv4SzaL3Qnk7HgxCXB-201" style="edgeStyle=none;curved=1;rounded=0;orthogonalLoop=1;jettySize=auto;html=1;entryX=0;entryY=0.5;entryDx=0;entryDy=0;entryPerimeter=0;fontSize=12;startSize=8;endSize=8;endArrow=none;endFill=0;exitX=1;exitY=0.5;exitDx=0;exitDy=0;exitPerimeter=0;" parent="WSuv4SzaL3Qnk7HgxCXB-57" source="WSuv4SzaL3Qnk7HgxCXB-198" target="WSuv4SzaL3Qnk7HgxCXB-61" edge="1">
          <mxGeometry relative="1" as="geometry">
            <mxPoint x="-353" y="49" as="sourcePoint" />
            <mxPoint x="-219" y="93" as="targetPoint" />
          </mxGeometry>
        </mxCell>
        <mxCell id="-plp4mE1TCrz63QN9HbG-9" value="" style="sketch=0;points=[[0.5,0,0],[1,0.5,0],[0.5,1,0],[0,0.5,0],[0.145,0.145,0],[0.8555,0.145,0],[0.855,0.8555,0],[0.145,0.855,0]];verticalLabelPosition=bottom;html=1;verticalAlign=top;aspect=fixed;align=center;pointerEvents=1;shape=mxgraph.cisco19.rect;prIcon=router;fillColor=#FAFAFA;strokeColor=#FF6666;" parent="WSuv4SzaL3Qnk7HgxCXB-57" vertex="1">
          <mxGeometry x="-124" y="340" width="50" height="50" as="geometry" />
        </mxCell>
        <mxCell id="-plp4mE1TCrz63QN9HbG-10" value="Route Reflector" style="text;html=1;align=center;verticalAlign=middle;resizable=0;points=[];autosize=1;strokeColor=none;fillColor=none;fontSize=10;" parent="WSuv4SzaL3Qnk7HgxCXB-57" vertex="1">
          <mxGeometry x="-77" y="353" width="87" height="24" as="geometry" />
        </mxCell>
        <mxCell id="JTRN2UEG_rgVW73hcwAd-1" style="edgeStyle=none;curved=1;rounded=0;orthogonalLoop=1;jettySize=auto;html=1;entryX=0.145;entryY=0.855;entryDx=0;entryDy=0;entryPerimeter=0;fontSize=12;startSize=8;endSize=8;endArrow=none;endFill=0;exitX=0.855;exitY=0.8555;exitDx=0;exitDy=0;exitPerimeter=0;" parent="WSuv4SzaL3Qnk7HgxCXB-57" source="WSuv4SzaL3Qnk7HgxCXB-198" target="WSuv4SzaL3Qnk7HgxCXB-61" edge="1">
          <mxGeometry relative="1" as="geometry">
            <mxPoint x="-373" y="267" as="sourcePoint" />
            <mxPoint x="-229" y="267" as="targetPoint" />
          </mxGeometry>
        </mxCell>
        <mxCell id="JTRN2UEG_rgVW73hcwAd-6" style="edgeStyle=none;curved=1;rounded=0;orthogonalLoop=1;jettySize=auto;html=1;entryX=0.145;entryY=0.855;entryDx=0;entryDy=0;entryPerimeter=0;fontSize=12;startSize=8;endSize=8;endArrow=none;endFill=0;exitX=0.855;exitY=0.8555;exitDx=0;exitDy=0;exitPerimeter=0;" parent="WSuv4SzaL3Qnk7HgxCXB-57" source="WSuv4SzaL3Qnk7HgxCXB-192" target="WSuv4SzaL3Qnk7HgxCXB-60" edge="1">
          <mxGeometry relative="1" as="geometry">
            <mxPoint x="-380" y="285" as="sourcePoint" />
            <mxPoint x="-222" y="285" as="targetPoint" />
          </mxGeometry>
        </mxCell>
        <mxCell id="WSuv4SzaL3Qnk7HgxCXB-48" value="Hostnames" parent="0" />
        <mxCell id="WSuv4SzaL3Qnk7HgxCXB-49" value="s1-p01" style="text;html=1;align=center;verticalAlign=middle;resizable=0;points=[];autosize=1;strokeColor=none;fillColor=none;fontSize=11;fontFamily=Verdana;" parent="WSuv4SzaL3Qnk7HgxCXB-48" vertex="1">
          <mxGeometry x="14" y="-29" width="57" height="25" as="geometry" />
        </mxCell>
        <mxCell id="WSuv4SzaL3Qnk7HgxCXB-50" value="s1-p02" style="text;html=1;align=center;verticalAlign=middle;resizable=0;points=[];autosize=1;strokeColor=none;fillColor=none;fontSize=11;fontFamily=Verdana;" parent="WSuv4SzaL3Qnk7HgxCXB-48" vertex="1">
          <mxGeometry x="10.5" y="242" width="57" height="25" as="geometry" />
        </mxCell>
        <mxCell id="WSuv4SzaL3Qnk7HgxCXB-51" value="s2-pe01" style="text;html=1;align=center;verticalAlign=middle;resizable=0;points=[];autosize=1;strokeColor=none;fillColor=none;fontSize=11;fontFamily=Verdana;" parent="WSuv4SzaL3Qnk7HgxCXB-48" vertex="1">
          <mxGeometry x="572" y="61" width="63" height="25" as="geometry" />
        </mxCell>
        <mxCell id="WSuv4SzaL3Qnk7HgxCXB-52" value="s1-pe02" style="text;html=1;align=center;verticalAlign=middle;resizable=0;points=[];autosize=1;strokeColor=none;fillColor=none;fontSize=11;fontFamily=Verdana;" parent="WSuv4SzaL3Qnk7HgxCXB-48" vertex="1">
          <mxGeometry x="-243" y="26" width="63" height="25" as="geometry" />
        </mxCell>
        <mxCell id="WSuv4SzaL3Qnk7HgxCXB-53" value="s1-pe03" style="text;html=1;align=center;verticalAlign=middle;resizable=0;points=[];autosize=1;strokeColor=none;fillColor=none;fontSize=11;fontFamily=Verdana;" parent="WSuv4SzaL3Qnk7HgxCXB-48" vertex="1">
          <mxGeometry x="-243" y="118" width="63" height="25" as="geometry" />
        </mxCell>
        <mxCell id="WSuv4SzaL3Qnk7HgxCXB-54" value="s1-pe04" style="text;html=1;align=center;verticalAlign=middle;resizable=0;points=[];autosize=1;strokeColor=none;fillColor=none;fontSize=11;fontFamily=Verdana;" parent="WSuv4SzaL3Qnk7HgxCXB-48" vertex="1">
          <mxGeometry x="-243" y="213" width="63" height="25" as="geometry" />
        </mxCell>
        <mxCell id="WSuv4SzaL3Qnk7HgxCXB-55" value="s2-p02" style="text;html=1;align=center;verticalAlign=middle;resizable=0;points=[];autosize=1;strokeColor=none;fillColor=none;fontSize=11;fontFamily=Verdana;" parent="WSuv4SzaL3Qnk7HgxCXB-48" vertex="1">
          <mxGeometry x="322" y="242" width="57" height="25" as="geometry" />
        </mxCell>
        <mxCell id="WSuv4SzaL3Qnk7HgxCXB-56" value="s2-p01" style="text;html=1;align=center;verticalAlign=middle;resizable=0;points=[];autosize=1;strokeColor=none;fillColor=none;fontSize=11;fontFamily=Verdana;" parent="WSuv4SzaL3Qnk7HgxCXB-48" vertex="1">
          <mxGeometry x="318.5" y="-31.5" width="57" height="25" as="geometry" />
        </mxCell>
        <mxCell id="WSuv4SzaL3Qnk7HgxCXB-98" value="s1-ce01" style="text;html=1;align=center;verticalAlign=middle;resizable=0;points=[];autosize=1;strokeColor=none;fillColor=none;fontSize=11;fontFamily=Verdana;" parent="WSuv4SzaL3Qnk7HgxCXB-48" vertex="1">
          <mxGeometry x="-427.5" y="-26" width="62" height="25" as="geometry" />
        </mxCell>
        <mxCell id="WSuv4SzaL3Qnk7HgxCXB-100" value="s2-ce01" style="text;html=1;align=center;verticalAlign=middle;resizable=0;points=[];autosize=1;strokeColor=none;fillColor=none;fontSize=11;fontFamily=Verdana;" parent="WSuv4SzaL3Qnk7HgxCXB-48" vertex="1">
          <mxGeometry x="758" y="60.5" width="62" height="25" as="geometry" />
        </mxCell>
        <mxCell id="WSuv4SzaL3Qnk7HgxCXB-101" value="s1-pe01" style="text;html=1;align=center;verticalAlign=middle;resizable=0;points=[];autosize=1;strokeColor=none;fillColor=none;fontSize=11;fontFamily=Verdana;" parent="WSuv4SzaL3Qnk7HgxCXB-48" vertex="1">
          <mxGeometry x="-243" y="-67" width="63" height="25" as="geometry" />
        </mxCell>
        <mxCell id="WSuv4SzaL3Qnk7HgxCXB-203" value="s1-ce03" style="text;html=1;align=center;verticalAlign=middle;resizable=0;points=[];autosize=1;strokeColor=none;fillColor=none;fontSize=11;fontFamily=Verdana;" parent="WSuv4SzaL3Qnk7HgxCXB-48" vertex="1">
          <mxGeometry x="-466" y="121" width="62" height="25" as="geometry" />
        </mxCell>
        <mxCell id="WSuv4SzaL3Qnk7HgxCXB-106" value="Interfaces" parent="0" />
        <mxCell id="WSuv4SzaL3Qnk7HgxCXB-107" value="eth1" style="text;html=1;align=center;verticalAlign=middle;resizable=0;points=[];autosize=1;strokeColor=none;fillColor=none;fontSize=8;fontFamily=Verdana;" parent="WSuv4SzaL3Qnk7HgxCXB-106" vertex="1">
          <mxGeometry x="-374" y="-6" width="36" height="22" as="geometry" />
        </mxCell>
        <mxCell id="WSuv4SzaL3Qnk7HgxCXB-108" value="eth2" style="text;html=1;align=center;verticalAlign=middle;resizable=0;points=[];autosize=1;strokeColor=none;fillColor=none;fontSize=8;fontFamily=Verdana;" parent="WSuv4SzaL3Qnk7HgxCXB-106" vertex="1">
          <mxGeometry x="-377" y="31" width="36" height="22" as="geometry" />
        </mxCell>
        <mxCell id="WSuv4SzaL3Qnk7HgxCXB-109" value="eth4" style="text;html=1;align=center;verticalAlign=middle;resizable=0;points=[];autosize=1;strokeColor=none;fillColor=none;fontSize=8;fontFamily=Verdana;" parent="WSuv4SzaL3Qnk7HgxCXB-106" vertex="1">
          <mxGeometry x="-275" y="-34" width="36" height="22" as="geometry" />
        </mxCell>
        <mxCell id="WSuv4SzaL3Qnk7HgxCXB-110" value="eth4" style="text;html=1;align=center;verticalAlign=middle;resizable=0;points=[];autosize=1;strokeColor=none;fillColor=none;fontSize=8;fontFamily=Verdana;" parent="WSuv4SzaL3Qnk7HgxCXB-106" vertex="1">
          <mxGeometry x="-275" y="66" width="36" height="22" as="geometry" />
        </mxCell>
        <mxCell id="WSuv4SzaL3Qnk7HgxCXB-111" value="eth4" style="text;html=1;align=center;verticalAlign=middle;resizable=0;points=[];autosize=1;strokeColor=none;fillColor=none;fontSize=8;fontFamily=Verdana;" parent="WSuv4SzaL3Qnk7HgxCXB-106" vertex="1">
          <mxGeometry x="-270" y="149" width="36" height="22" as="geometry" />
        </mxCell>
        <mxCell id="WSuv4SzaL3Qnk7HgxCXB-112" value="eth4" style="text;html=1;align=center;verticalAlign=middle;resizable=0;points=[];autosize=1;strokeColor=none;fillColor=none;fontSize=8;fontFamily=Verdana;" parent="WSuv4SzaL3Qnk7HgxCXB-106" vertex="1">
          <mxGeometry x="-269" y="240" width="36" height="22" as="geometry" />
        </mxCell>
        <mxCell id="WSuv4SzaL3Qnk7HgxCXB-115" value="eth1" style="text;html=1;align=center;verticalAlign=middle;resizable=0;points=[];autosize=1;strokeColor=none;fillColor=none;fontSize=8;fontFamily=Verdana;" parent="WSuv4SzaL3Qnk7HgxCXB-106" vertex="1">
          <mxGeometry x="-190" y="-32" width="36" height="22" as="geometry" />
        </mxCell>
        <mxCell id="WSuv4SzaL3Qnk7HgxCXB-116" value="eth2" style="text;html=1;align=center;verticalAlign=middle;resizable=0;points=[];autosize=1;strokeColor=none;fillColor=none;fontSize=8;fontFamily=Verdana;" parent="WSuv4SzaL3Qnk7HgxCXB-106" vertex="1">
          <mxGeometry x="-192" y="-2" width="36" height="22" as="geometry" />
        </mxCell>
        <mxCell id="WSuv4SzaL3Qnk7HgxCXB-117" value="eth1" style="text;html=1;align=center;verticalAlign=middle;resizable=0;points=[];autosize=1;strokeColor=none;fillColor=none;fontSize=8;fontFamily=Verdana;" parent="WSuv4SzaL3Qnk7HgxCXB-106" vertex="1">
          <mxGeometry x="-190" y="59" width="36" height="22" as="geometry" />
        </mxCell>
        <mxCell id="WSuv4SzaL3Qnk7HgxCXB-118" value="eth2" style="text;html=1;align=center;verticalAlign=middle;resizable=0;points=[];autosize=1;strokeColor=none;fillColor=none;fontSize=8;fontFamily=Verdana;" parent="WSuv4SzaL3Qnk7HgxCXB-106" vertex="1">
          <mxGeometry x="-192" y="78" width="36" height="22" as="geometry" />
        </mxCell>
        <mxCell id="WSuv4SzaL3Qnk7HgxCXB-119" value="eth1" style="text;html=1;align=center;verticalAlign=middle;resizable=0;points=[];autosize=1;strokeColor=none;fillColor=none;fontSize=8;fontFamily=Verdana;" parent="WSuv4SzaL3Qnk7HgxCXB-106" vertex="1">
          <mxGeometry x="-187" y="132.5" width="36" height="22" as="geometry" />
        </mxCell>
        <mxCell id="WSuv4SzaL3Qnk7HgxCXB-120" value="eth2" style="text;html=1;align=center;verticalAlign=middle;resizable=0;points=[];autosize=1;strokeColor=none;fillColor=none;fontSize=8;fontFamily=Verdana;" parent="WSuv4SzaL3Qnk7HgxCXB-106" vertex="1">
          <mxGeometry x="-190" y="158" width="36" height="22" as="geometry" />
        </mxCell>
        <mxCell id="WSuv4SzaL3Qnk7HgxCXB-121" value="eth1" style="text;html=1;align=center;verticalAlign=middle;resizable=0;points=[];autosize=1;strokeColor=none;fillColor=none;fontSize=8;fontFamily=Verdana;" parent="WSuv4SzaL3Qnk7HgxCXB-106" vertex="1">
          <mxGeometry x="-187" y="213" width="36" height="22" as="geometry" />
        </mxCell>
        <mxCell id="WSuv4SzaL3Qnk7HgxCXB-122" value="eth2" style="text;html=1;align=center;verticalAlign=middle;resizable=0;points=[];autosize=1;strokeColor=none;fillColor=none;fontSize=8;fontFamily=Verdana;" parent="WSuv4SzaL3Qnk7HgxCXB-106" vertex="1">
          <mxGeometry x="-190" y="250" width="36" height="22" as="geometry" />
        </mxCell>
        <mxCell id="WSuv4SzaL3Qnk7HgxCXB-123" value="eth1" style="text;html=1;align=center;verticalAlign=middle;resizable=0;points=[];autosize=1;strokeColor=none;fillColor=none;fontSize=8;fontFamily=Verdana;" parent="WSuv4SzaL3Qnk7HgxCXB-106" vertex="1">
          <mxGeometry x="-31" width="36" height="22" as="geometry" />
        </mxCell>
        <mxCell id="WSuv4SzaL3Qnk7HgxCXB-124" value="eth2" style="text;html=1;align=center;verticalAlign=middle;resizable=0;points=[];autosize=1;strokeColor=none;fillColor=none;fontSize=8;fontFamily=Verdana;" parent="WSuv4SzaL3Qnk7HgxCXB-106" vertex="1">
          <mxGeometry x="-48" y="14" width="36" height="22" as="geometry" />
        </mxCell>
        <mxCell id="WSuv4SzaL3Qnk7HgxCXB-125" value="eth3" style="text;html=1;align=center;verticalAlign=middle;resizable=0;points=[];autosize=1;strokeColor=none;fillColor=none;fontSize=8;fontFamily=Verdana;" parent="WSuv4SzaL3Qnk7HgxCXB-106" vertex="1">
          <mxGeometry x="-45" y="29" width="36" height="22" as="geometry" />
        </mxCell>
        <mxCell id="WSuv4SzaL3Qnk7HgxCXB-126" value="eth4" style="text;html=1;align=center;verticalAlign=middle;resizable=0;points=[];autosize=1;strokeColor=none;fillColor=none;fontSize=8;fontFamily=Verdana;" parent="WSuv4SzaL3Qnk7HgxCXB-106" vertex="1">
          <mxGeometry x="-25" y="40" width="36" height="22" as="geometry" />
        </mxCell>
        <mxCell id="WSuv4SzaL3Qnk7HgxCXB-129" value="eth1" style="text;html=1;align=center;verticalAlign=middle;resizable=0;points=[];autosize=1;strokeColor=none;fillColor=none;fontSize=8;fontFamily=Verdana;" parent="WSuv4SzaL3Qnk7HgxCXB-106" vertex="1">
          <mxGeometry x="-27" y="186" width="36" height="22" as="geometry" />
        </mxCell>
        <mxCell id="WSuv4SzaL3Qnk7HgxCXB-130" value="eth2" style="text;html=1;align=center;verticalAlign=middle;resizable=0;points=[];autosize=1;strokeColor=none;fillColor=none;fontSize=8;fontFamily=Verdana;" parent="WSuv4SzaL3Qnk7HgxCXB-106" vertex="1">
          <mxGeometry x="-39" y="195" width="36" height="22" as="geometry" />
        </mxCell>
        <mxCell id="WSuv4SzaL3Qnk7HgxCXB-131" value="eth3" style="text;html=1;align=center;verticalAlign=middle;resizable=0;points=[];autosize=1;strokeColor=none;fillColor=none;fontSize=8;fontFamily=Verdana;" parent="WSuv4SzaL3Qnk7HgxCXB-106" vertex="1">
          <mxGeometry x="-39" y="208" width="36" height="22" as="geometry" />
        </mxCell>
        <mxCell id="WSuv4SzaL3Qnk7HgxCXB-132" value="eth4" style="text;html=1;align=center;verticalAlign=middle;resizable=0;points=[];autosize=1;strokeColor=none;fillColor=none;fontSize=8;fontFamily=Verdana;" parent="WSuv4SzaL3Qnk7HgxCXB-106" vertex="1">
          <mxGeometry x="-27" y="220" width="36" height="22" as="geometry" />
        </mxCell>
        <mxCell id="WSuv4SzaL3Qnk7HgxCXB-133" value="eth5" style="text;html=1;align=center;verticalAlign=middle;resizable=0;points=[];autosize=1;strokeColor=none;fillColor=none;fontSize=8;fontFamily=Verdana;" parent="WSuv4SzaL3Qnk7HgxCXB-106" vertex="1">
          <mxGeometry x="32" y="44" width="36" height="22" as="geometry" />
        </mxCell>
        <mxCell id="WSuv4SzaL3Qnk7HgxCXB-134" value="eth5" style="text;html=1;align=center;verticalAlign=middle;resizable=0;points=[];autosize=1;strokeColor=none;fillColor=none;fontSize=8;fontFamily=Verdana;" parent="WSuv4SzaL3Qnk7HgxCXB-106" vertex="1">
          <mxGeometry x="32" y="180" width="36" height="22" as="geometry" />
        </mxCell>
        <mxCell id="WSuv4SzaL3Qnk7HgxCXB-135" value="eth7" style="text;html=1;align=center;verticalAlign=middle;resizable=0;points=[];autosize=1;strokeColor=none;fillColor=none;fontSize=8;fontFamily=Verdana;" parent="WSuv4SzaL3Qnk7HgxCXB-106" vertex="1">
          <mxGeometry x="59" y="26" width="36" height="22" as="geometry" />
        </mxCell>
        <mxCell id="WSuv4SzaL3Qnk7HgxCXB-136" value="eth7" style="text;html=1;align=center;verticalAlign=middle;resizable=0;points=[];autosize=1;strokeColor=none;fillColor=none;fontSize=8;fontFamily=Verdana;" parent="WSuv4SzaL3Qnk7HgxCXB-106" vertex="1">
          <mxGeometry x="304" y="180" width="36" height="22" as="geometry" />
        </mxCell>
        <mxCell id="WSuv4SzaL3Qnk7HgxCXB-137" value="eth6" style="text;html=1;align=center;verticalAlign=middle;resizable=0;points=[];autosize=1;strokeColor=none;fillColor=none;fontSize=8;fontFamily=Verdana;" parent="WSuv4SzaL3Qnk7HgxCXB-106" vertex="1">
          <mxGeometry x="56" y="4" width="36" height="22" as="geometry" />
        </mxCell>
        <mxCell id="WSuv4SzaL3Qnk7HgxCXB-138" value="eth6" style="text;html=1;align=center;verticalAlign=middle;resizable=0;points=[];autosize=1;strokeColor=none;fillColor=none;fontSize=8;fontFamily=Verdana;" parent="WSuv4SzaL3Qnk7HgxCXB-106" vertex="1">
          <mxGeometry x="56" y="217" width="36" height="22" as="geometry" />
        </mxCell>
        <mxCell id="WSuv4SzaL3Qnk7HgxCXB-139" value="eth6" style="text;html=1;align=center;verticalAlign=middle;resizable=0;points=[];autosize=1;strokeColor=none;fillColor=none;fontSize=8;fontFamily=Verdana;" parent="WSuv4SzaL3Qnk7HgxCXB-106" vertex="1">
          <mxGeometry x="294" y="217" width="36" height="22" as="geometry" />
        </mxCell>
        <mxCell id="WSuv4SzaL3Qnk7HgxCXB-140" value="eth6" style="text;html=1;align=center;verticalAlign=middle;resizable=0;points=[];autosize=1;strokeColor=none;fillColor=none;fontSize=8;fontFamily=Verdana;" parent="WSuv4SzaL3Qnk7HgxCXB-106" vertex="1">
          <mxGeometry x="294" y="4" width="36" height="22" as="geometry" />
        </mxCell>
        <mxCell id="WSuv4SzaL3Qnk7HgxCXB-141" value="eth5" style="text;html=1;align=center;verticalAlign=middle;resizable=0;points=[];autosize=1;strokeColor=none;fillColor=none;fontSize=8;fontFamily=Verdana;" parent="WSuv4SzaL3Qnk7HgxCXB-106" vertex="1">
          <mxGeometry x="340" y="180" width="36" height="22" as="geometry" />
        </mxCell>
        <mxCell id="WSuv4SzaL3Qnk7HgxCXB-142" value="eth5" style="text;html=1;align=center;verticalAlign=middle;resizable=0;points=[];autosize=1;strokeColor=none;fillColor=none;fontSize=8;fontFamily=Verdana;" parent="WSuv4SzaL3Qnk7HgxCXB-106" vertex="1">
          <mxGeometry x="340" y="40" width="36" height="22" as="geometry" />
        </mxCell>
        <mxCell id="WSuv4SzaL3Qnk7HgxCXB-143" value="eth1" style="text;html=1;align=center;verticalAlign=middle;resizable=0;points=[];autosize=1;strokeColor=none;fillColor=none;fontSize=8;fontFamily=Verdana;" parent="WSuv4SzaL3Qnk7HgxCXB-106" vertex="1">
          <mxGeometry x="366" y="16" width="36" height="22" as="geometry" />
        </mxCell>
        <mxCell id="WSuv4SzaL3Qnk7HgxCXB-144" value="eth1" style="text;html=1;align=center;verticalAlign=middle;resizable=0;points=[];autosize=1;strokeColor=none;fillColor=none;fontSize=8;fontFamily=Verdana;" parent="WSuv4SzaL3Qnk7HgxCXB-106" vertex="1">
          <mxGeometry x="368" y="202" width="36" height="22" as="geometry" />
        </mxCell>
        <mxCell id="WSuv4SzaL3Qnk7HgxCXB-145" value="eth1" style="text;html=1;align=center;verticalAlign=middle;resizable=0;points=[];autosize=1;strokeColor=none;fillColor=none;fontSize=8;fontFamily=Verdana;" parent="WSuv4SzaL3Qnk7HgxCXB-106" vertex="1">
          <mxGeometry x="533" y="95" width="36" height="22" as="geometry" />
        </mxCell>
        <mxCell id="WSuv4SzaL3Qnk7HgxCXB-146" value="eth2" style="text;html=1;align=center;verticalAlign=middle;resizable=0;points=[];autosize=1;strokeColor=none;fillColor=none;fontSize=8;fontFamily=Verdana;" parent="WSuv4SzaL3Qnk7HgxCXB-106" vertex="1">
          <mxGeometry x="533" y="105" width="36" height="22" as="geometry" />
        </mxCell>
        <mxCell id="WSuv4SzaL3Qnk7HgxCXB-147" value="eth3" style="text;html=1;align=center;verticalAlign=middle;resizable=0;points=[];autosize=1;strokeColor=none;fillColor=none;fontSize=8;fontFamily=Verdana;" parent="WSuv4SzaL3Qnk7HgxCXB-106" vertex="1">
          <mxGeometry x="623" y="95" width="36" height="22" as="geometry" />
        </mxCell>
        <mxCell id="WSuv4SzaL3Qnk7HgxCXB-148" value="eth1" style="text;html=1;align=center;verticalAlign=middle;resizable=0;points=[];autosize=1;strokeColor=none;fillColor=none;fontSize=8;fontFamily=Verdana;" parent="WSuv4SzaL3Qnk7HgxCXB-106" vertex="1">
          <mxGeometry x="734" y="105" width="36" height="22" as="geometry" />
        </mxCell>
        <mxCell id="-plp4mE1TCrz63QN9HbG-21" value="eth1" style="text;html=1;align=center;verticalAlign=middle;resizable=0;points=[];autosize=1;strokeColor=none;fillColor=none;fontSize=8;fontFamily=Verdana;" parent="WSuv4SzaL3Qnk7HgxCXB-106" vertex="1">
          <mxGeometry x="-393" y="149" width="36" height="22" as="geometry" />
        </mxCell>
        <mxCell id="-plp4mE1TCrz63QN9HbG-22" value="eth1" style="text;html=1;align=center;verticalAlign=middle;resizable=0;points=[];autosize=1;strokeColor=none;fillColor=none;fontSize=8;fontFamily=Verdana;" parent="WSuv4SzaL3Qnk7HgxCXB-106" vertex="1">
          <mxGeometry x="-389" y="240" width="36" height="22" as="geometry" />
        </mxCell>
        <mxCell id="JTRN2UEG_rgVW73hcwAd-2" value="eth2" style="text;html=1;align=center;verticalAlign=middle;resizable=0;points=[];autosize=1;strokeColor=none;fillColor=none;fontSize=8;fontFamily=Verdana;" parent="WSuv4SzaL3Qnk7HgxCXB-106" vertex="1">
          <mxGeometry x="-395" y="268" width="36" height="22" as="geometry" />
        </mxCell>
        <mxCell id="JTRN2UEG_rgVW73hcwAd-3" value="eth5" style="text;html=1;align=center;verticalAlign=middle;resizable=0;points=[];autosize=1;strokeColor=none;fillColor=none;fontSize=8;fontFamily=Verdana;" parent="WSuv4SzaL3Qnk7HgxCXB-106" vertex="1">
          <mxGeometry x="-266" y="268" width="36" height="22" as="geometry" />
        </mxCell>
        <mxCell id="JTRN2UEG_rgVW73hcwAd-4" value="eth2" style="text;html=1;align=center;verticalAlign=middle;resizable=0;points=[];autosize=1;strokeColor=none;fillColor=none;fontSize=8;fontFamily=Verdana;" parent="WSuv4SzaL3Qnk7HgxCXB-106" vertex="1">
          <mxGeometry x="-395" y="177" width="36" height="22" as="geometry" />
        </mxCell>
        <mxCell id="JTRN2UEG_rgVW73hcwAd-5" value="eth5" style="text;html=1;align=center;verticalAlign=middle;resizable=0;points=[];autosize=1;strokeColor=none;fillColor=none;fontSize=8;fontFamily=Verdana;" parent="WSuv4SzaL3Qnk7HgxCXB-106" vertex="1">
          <mxGeometry x="-266" y="177" width="36" height="22" as="geometry" />
        </mxCell>
        <mxCell id="WSuv4SzaL3Qnk7HgxCXB-154" value="VRF Clients" parent="0" visible="0" />
        <mxCell id="WSuv4SzaL3Qnk7HgxCXB-155" value="CLIENTS" style="shape=process;whiteSpace=wrap;html=1;backgroundOutline=1;fillColor=#d0cee2;strokeColor=#56517e;fontSize=9;" parent="WSuv4SzaL3Qnk7HgxCXB-154" vertex="1">
          <mxGeometry x="-254" y="-10" width="77" height="21" as="geometry" />
        </mxCell>
        <mxCell id="WSuv4SzaL3Qnk7HgxCXB-156" value="CLIENTS" style="shape=process;whiteSpace=wrap;html=1;backgroundOutline=1;fillColor=#d0cee2;strokeColor=#56517e;fontSize=9;" parent="WSuv4SzaL3Qnk7HgxCXB-154" vertex="1">
          <mxGeometry x="-254" y="88" width="77" height="21" as="geometry" />
        </mxCell>
        <mxCell id="WSuv4SzaL3Qnk7HgxCXB-159" value="CLIENTS" style="shape=process;whiteSpace=wrap;html=1;backgroundOutline=1;fillColor=#d0cee2;strokeColor=#56517e;fontSize=9;" parent="WSuv4SzaL3Qnk7HgxCXB-154" vertex="1">
          <mxGeometry x="-470" y="11" width="77" height="21" as="geometry" />
        </mxCell>
        <mxCell id="WSuv4SzaL3Qnk7HgxCXB-190" style="edgeStyle=none;curved=1;rounded=0;orthogonalLoop=1;jettySize=auto;html=1;fontSize=12;startSize=8;endSize=8;strokeColor=#97D077;endArrow=classicThin;endFill=1;startArrow=classicThin;startFill=1;" parent="WSuv4SzaL3Qnk7HgxCXB-154" edge="1">
          <mxGeometry relative="1" as="geometry">
            <mxPoint x="752.6774193548385" y="99.9677419354839" as="targetPoint" />
            <mxPoint x="675" y="100" as="sourcePoint" />
          </mxGeometry>
        </mxCell>
        <mxCell id="WSuv4SzaL3Qnk7HgxCXB-191" value="static" style="edgeLabel;html=1;align=center;verticalAlign=middle;resizable=0;points=[];fontSize=9;fontColor=#97D077;" parent="WSuv4SzaL3Qnk7HgxCXB-190" vertex="1" connectable="0">
          <mxGeometry x="0.0864" relative="1" as="geometry">
            <mxPoint as="offset" />
          </mxGeometry>
        </mxCell>
        <mxCell id="WSuv4SzaL3Qnk7HgxCXB-161" value="vlan 1810" style="ellipse;whiteSpace=wrap;html=1;fontSize=7;fillColor=#d0cee2;strokeColor=#56517e;" parent="WSuv4SzaL3Qnk7HgxCXB-154" vertex="1">
          <mxGeometry x="-397" y="12" width="44" height="20" as="geometry" />
        </mxCell>
        <mxCell id="WSuv4SzaL3Qnk7HgxCXB-162" value="vlan 1810" style="ellipse;whiteSpace=wrap;html=1;fontSize=7;fillColor=#d0cee2;strokeColor=#56517e;" parent="WSuv4SzaL3Qnk7HgxCXB-154" vertex="1">
          <mxGeometry x="-276" y="-23" width="44" height="20" as="geometry" />
        </mxCell>
        <mxCell id="WSuv4SzaL3Qnk7HgxCXB-163" value="vlan 1810" style="ellipse;whiteSpace=wrap;html=1;fontSize=7;fillColor=#d0cee2;strokeColor=#56517e;" parent="WSuv4SzaL3Qnk7HgxCXB-154" vertex="1">
          <mxGeometry x="-278" y="73" width="44" height="20" as="geometry" />
        </mxCell>
        <mxCell id="WSuv4SzaL3Qnk7HgxCXB-166" value="Lo1018" style="ellipse;whiteSpace=wrap;html=1;aspect=fixed;fillColor=#d0cee2;strokeColor=#56517e;fontSize=6;" parent="WSuv4SzaL3Qnk7HgxCXB-154" vertex="1">
          <mxGeometry x="-229.5" y="-31" width="28" height="28" as="geometry" />
        </mxCell>
        <mxCell id="WSuv4SzaL3Qnk7HgxCXB-167" value="Lo1018" style="ellipse;whiteSpace=wrap;html=1;aspect=fixed;fillColor=#d0cee2;strokeColor=#56517e;fontSize=6;" parent="WSuv4SzaL3Qnk7HgxCXB-154" vertex="1">
          <mxGeometry x="-227" y="65" width="28" height="28" as="geometry" />
        </mxCell>
        <mxCell id="WSuv4SzaL3Qnk7HgxCXB-171" style="edgeStyle=none;curved=1;rounded=0;orthogonalLoop=1;jettySize=auto;html=1;fontSize=12;startSize=8;endSize=8;strokeColor=#FF0000;endArrow=classicThin;endFill=1;" parent="WSuv4SzaL3Qnk7HgxCXB-154" source="WSuv4SzaL3Qnk7HgxCXB-161" target="WSuv4SzaL3Qnk7HgxCXB-166" edge="1">
          <mxGeometry relative="1" as="geometry" />
        </mxCell>
        <mxCell id="WSuv4SzaL3Qnk7HgxCXB-172" style="edgeStyle=none;curved=1;rounded=0;orthogonalLoop=1;jettySize=auto;html=1;fontSize=12;startSize=8;endSize=8;strokeColor=#FF0000;endArrow=classicThin;endFill=1;exitX=0.876;exitY=0.612;exitDx=0;exitDy=0;exitPerimeter=0;" parent="WSuv4SzaL3Qnk7HgxCXB-154" source="WSuv4SzaL3Qnk7HgxCXB-161" target="WSuv4SzaL3Qnk7HgxCXB-167" edge="1">
          <mxGeometry relative="1" as="geometry">
            <mxPoint x="-346" y="27" as="sourcePoint" />
            <mxPoint x="-219" y="-4" as="targetPoint" />
          </mxGeometry>
        </mxCell>
        <mxCell id="WSuv4SzaL3Qnk7HgxCXB-175" value="CLIENTS" style="shape=process;whiteSpace=wrap;html=1;backgroundOutline=1;fillColor=#d0cee2;strokeColor=#56517e;fontSize=9;" parent="WSuv4SzaL3Qnk7HgxCXB-154" vertex="1">
          <mxGeometry x="788" y="101" width="77" height="21" as="geometry" />
        </mxCell>
        <mxCell id="WSuv4SzaL3Qnk7HgxCXB-176" value="vlan 1810" style="ellipse;whiteSpace=wrap;html=1;fontSize=7;fillColor=#d0cee2;strokeColor=#56517e;" parent="WSuv4SzaL3Qnk7HgxCXB-154" vertex="1">
          <mxGeometry x="754" y="101" width="44" height="20" as="geometry" />
        </mxCell>
        <mxCell id="WSuv4SzaL3Qnk7HgxCXB-177" value="10.18.10.211/24" style="text;html=1;align=center;verticalAlign=middle;resizable=0;points=[];autosize=1;strokeColor=none;fillColor=none;fontSize=7;fontFamily=Verdana;" parent="WSuv4SzaL3Qnk7HgxCXB-154" vertex="1">
          <mxGeometry x="-440" y="45" width="78" height="20" as="geometry" />
        </mxCell>
        <mxCell id="WSuv4SzaL3Qnk7HgxCXB-178" value="10.18.10.11/24" style="text;html=1;align=center;verticalAlign=middle;resizable=0;points=[];autosize=1;strokeColor=none;fillColor=none;fontSize=7;fontFamily=Verdana;" parent="WSuv4SzaL3Qnk7HgxCXB-154" vertex="1">
          <mxGeometry x="-254" y="7" width="73" height="20" as="geometry" />
        </mxCell>
        <mxCell id="WSuv4SzaL3Qnk7HgxCXB-179" value="10.18.10.12/24" style="text;html=1;align=center;verticalAlign=middle;resizable=0;points=[];autosize=1;strokeColor=none;fillColor=none;fontSize=7;fontFamily=Verdana;" parent="WSuv4SzaL3Qnk7HgxCXB-154" vertex="1">
          <mxGeometry x="-254" y="104" width="73" height="20" as="geometry" />
        </mxCell>
        <mxCell id="WSuv4SzaL3Qnk7HgxCXB-182" value="vip: 10.18.10.1/24" style="text;html=1;align=center;verticalAlign=middle;resizable=0;points=[];autosize=1;strokeColor=none;fillColor=none;fontSize=7;fontFamily=Verdana;" parent="WSuv4SzaL3Qnk7HgxCXB-154" vertex="1">
          <mxGeometry x="-296.5" y="21" width="85" height="20" as="geometry" />
        </mxCell>
        <mxCell id="WSuv4SzaL3Qnk7HgxCXB-185" value="CLIENTS" style="shape=process;whiteSpace=wrap;html=1;backgroundOutline=1;fillColor=#d0cee2;strokeColor=#56517e;fontSize=9;" parent="WSuv4SzaL3Qnk7HgxCXB-154" vertex="1">
          <mxGeometry x="559" y="100" width="77" height="21" as="geometry" />
        </mxCell>
        <mxCell id="WSuv4SzaL3Qnk7HgxCXB-186" value="vlan 1810" style="ellipse;whiteSpace=wrap;html=1;fontSize=7;fillColor=#d0cee2;strokeColor=#56517e;" parent="WSuv4SzaL3Qnk7HgxCXB-154" vertex="1">
          <mxGeometry x="629" y="100.5" width="44" height="20" as="geometry" />
        </mxCell>
        <mxCell id="WSuv4SzaL3Qnk7HgxCXB-187" value="10.18.11.1/24" style="text;html=1;align=center;verticalAlign=middle;resizable=0;points=[];autosize=1;strokeColor=none;fillColor=none;fontSize=7;fontFamily=Verdana;" parent="WSuv4SzaL3Qnk7HgxCXB-154" vertex="1">
          <mxGeometry x="609" y="122" width="69" height="20" as="geometry" />
        </mxCell>
        <mxCell id="WSuv4SzaL3Qnk7HgxCXB-188" value="10.18.11.221/24" style="text;html=1;align=center;verticalAlign=middle;resizable=0;points=[];autosize=1;strokeColor=none;fillColor=none;fontSize=7;fontFamily=Verdana;" parent="WSuv4SzaL3Qnk7HgxCXB-154" vertex="1">
          <mxGeometry x="727" y="122" width="78" height="20" as="geometry" />
        </mxCell>
        <mxCell id="JTRN2UEG_rgVW73hcwAd-7" value="L3VPN - Dual Homed L3 network" parent="0" visible="0" />
        <mxCell id="JTRN2UEG_rgVW73hcwAd-9" value="ATM&lt;br&gt;&lt;font style=&quot;font-size: 7px;&quot;&gt;AS: 65101&lt;/font&gt;" style="shape=process;whiteSpace=wrap;html=1;backgroundOutline=1;fillColor=#60a917;strokeColor=#2D7600;fontSize=9;rotation=0;fontColor=#ffffff;" parent="JTRN2UEG_rgVW73hcwAd-7" vertex="1">
          <mxGeometry x="-509" y="204" width="77" height="21" as="geometry" />
        </mxCell>
        <mxCell id="JTRN2UEG_rgVW73hcwAd-10" style="edgeStyle=none;curved=1;rounded=0;orthogonalLoop=1;jettySize=auto;html=1;entryX=0;entryY=0.5;entryDx=0;entryDy=0;entryPerimeter=0;fontSize=12;startSize=8;endSize=8;endArrow=none;endFill=0;exitX=0.454;exitY=0.976;exitDx=0;exitDy=0;exitPerimeter=0;" parent="JTRN2UEG_rgVW73hcwAd-7" source="JTRN2UEG_rgVW73hcwAd-9" target="WSuv4SzaL3Qnk7HgxCXB-198" edge="1">
          <mxGeometry relative="1" as="geometry">
            <mxPoint x="-380" y="285" as="sourcePoint" />
            <mxPoint x="-222" y="285" as="targetPoint" />
          </mxGeometry>
        </mxCell>
        <mxCell id="JTRN2UEG_rgVW73hcwAd-11" style="edgeStyle=none;curved=1;rounded=0;orthogonalLoop=1;jettySize=auto;html=1;entryX=0;entryY=0.5;entryDx=0;entryDy=0;entryPerimeter=0;fontSize=12;startSize=8;endSize=8;endArrow=none;endFill=0;exitX=0.459;exitY=0.023;exitDx=0;exitDy=0;exitPerimeter=0;" parent="JTRN2UEG_rgVW73hcwAd-7" source="JTRN2UEG_rgVW73hcwAd-9" target="WSuv4SzaL3Qnk7HgxCXB-192" edge="1">
          <mxGeometry relative="1" as="geometry">
            <mxPoint x="-370" y="295" as="sourcePoint" />
            <mxPoint x="-212" y="295" as="targetPoint" />
          </mxGeometry>
        </mxCell>
        <mxCell id="JTRN2UEG_rgVW73hcwAd-23" value="eth2.101" style="shape=parallelogram;perimeter=parallelogramPerimeter;whiteSpace=wrap;html=1;fixedSize=1;fontSize=9;fillColor=#60a917;fontColor=#ffffff;strokeColor=#2D7600;size=7.862745098039284;" parent="JTRN2UEG_rgVW73hcwAd-7" vertex="1">
          <mxGeometry x="-407" y="193" width="70" height="12" as="geometry" />
        </mxCell>
        <mxCell id="JTRN2UEG_rgVW73hcwAd-24" value="eth5.1203" style="shape=parallelogram;perimeter=parallelogramPerimeter;whiteSpace=wrap;html=1;fixedSize=1;fontSize=9;fillColor=#60a917;fontColor=#ffffff;strokeColor=#2D7600;size=7.862745098039284;" parent="JTRN2UEG_rgVW73hcwAd-7" vertex="1">
          <mxGeometry x="-286" y="193" width="70" height="12" as="geometry" />
        </mxCell>
        <mxCell id="JTRN2UEG_rgVW73hcwAd-25" value="eth2.101" style="shape=parallelogram;perimeter=parallelogramPerimeter;whiteSpace=wrap;html=1;fixedSize=1;fontSize=9;fillColor=#60a917;fontColor=#ffffff;strokeColor=#2D7600;size=7.862745098039284;" parent="JTRN2UEG_rgVW73hcwAd-7" vertex="1">
          <mxGeometry x="-404" y="285" width="70" height="12" as="geometry" />
        </mxCell>
        <mxCell id="JTRN2UEG_rgVW73hcwAd-26" value="eth5.1204" style="shape=parallelogram;perimeter=parallelogramPerimeter;whiteSpace=wrap;html=1;fixedSize=1;fontSize=9;fillColor=#60a917;fontColor=#ffffff;strokeColor=#2D7600;size=7.862745098039284;" parent="JTRN2UEG_rgVW73hcwAd-7" vertex="1">
          <mxGeometry x="-283" y="285" width="70" height="12" as="geometry" />
        </mxCell>
        <mxCell id="JTRN2UEG_rgVW73hcwAd-27" value="ATM&lt;br&gt;&lt;font style=&quot;font-size: 7px;&quot;&gt;vrf-id: 12&lt;/font&gt;" style="shape=process;whiteSpace=wrap;html=1;backgroundOutline=1;fillColor=#60a917;strokeColor=#2D7600;fontSize=9;rotation=0;fontColor=#ffffff;" parent="JTRN2UEG_rgVW73hcwAd-7" vertex="1">
          <mxGeometry x="-251" y="264" width="72" height="21" as="geometry" />
        </mxCell>
        <mxCell id="JTRN2UEG_rgVW73hcwAd-28" value="ATM&lt;br&gt;&lt;font style=&quot;font-size: 7px;&quot;&gt;vrf-id: 12&lt;/font&gt;" style="shape=process;whiteSpace=wrap;html=1;backgroundOutline=1;fillColor=#60a917;strokeColor=#2D7600;fontSize=9;rotation=0;fontColor=#ffffff;" parent="JTRN2UEG_rgVW73hcwAd-7" vertex="1">
          <mxGeometry x="-251" y="172" width="72" height="21" as="geometry" />
        </mxCell>
        <mxCell id="JTRN2UEG_rgVW73hcwAd-29" value="ATM&lt;br&gt;&lt;font style=&quot;font-size: 7px;&quot;&gt;vrf-id: 12&lt;/font&gt;" style="shape=process;whiteSpace=wrap;html=1;backgroundOutline=1;fillColor=#60a917;strokeColor=#2D7600;fontSize=9;rotation=0;fontColor=#ffffff;" parent="JTRN2UEG_rgVW73hcwAd-7" vertex="1">
          <mxGeometry x="567" y="100" width="72" height="21" as="geometry" />
        </mxCell>
        <mxCell id="JTRN2UEG_rgVW73hcwAd-30" value="10.2.0.0/31" style="text;html=1;align=center;verticalAlign=middle;resizable=0;points=[];autosize=1;strokeColor=none;fillColor=none;fontSize=8;fontColor=#60a917;" parent="JTRN2UEG_rgVW73hcwAd-7" vertex="1">
          <mxGeometry x="-341" y="179" width="58" height="22" as="geometry" />
        </mxCell>
        <mxCell id="JTRN2UEG_rgVW73hcwAd-31" value="10.2.0.2/31" style="text;html=1;align=center;verticalAlign=middle;resizable=0;points=[];autosize=1;strokeColor=none;fillColor=none;fontSize=8;fontColor=#60a917;" parent="JTRN2UEG_rgVW73hcwAd-7" vertex="1">
          <mxGeometry x="-341" y="272" width="58" height="22" as="geometry" />
        </mxCell>
        <mxCell id="JTRN2UEG_rgVW73hcwAd-32" value="1205" style="ellipse;whiteSpace=wrap;html=1;fontSize=7;fillColor=#60a917;strokeColor=#2D7600;fontColor=#ffffff;" parent="JTRN2UEG_rgVW73hcwAd-7" vertex="1">
          <mxGeometry x="636" y="114" width="44" height="20" as="geometry" />
        </mxCell>
        <mxCell id="JTRN2UEG_rgVW73hcwAd-33" value="1205" style="ellipse;whiteSpace=wrap;html=1;fontSize=7;fillColor=#60a917;strokeColor=#2D7600;fontColor=#ffffff;" parent="JTRN2UEG_rgVW73hcwAd-7" vertex="1">
          <mxGeometry x="727" y="114" width="44" height="20" as="geometry" />
        </mxCell>
        <mxCell id="JTRN2UEG_rgVW73hcwAd-34" value="Lo1012" style="ellipse;whiteSpace=wrap;html=1;aspect=fixed;fillColor=#60a917;strokeColor=#2D7600;fontSize=6;fontColor=#ffffff;" parent="JTRN2UEG_rgVW73hcwAd-7" vertex="1">
          <mxGeometry x="626" y="72" width="28" height="28" as="geometry" />
        </mxCell>
        <mxCell id="JTRN2UEG_rgVW73hcwAd-35" value="10.2.1.0/24" style="text;html=1;align=center;verticalAlign=middle;resizable=0;points=[];autosize=1;strokeColor=none;fillColor=none;fontSize=8;fontColor=#60a917;" parent="JTRN2UEG_rgVW73hcwAd-7" vertex="1">
          <mxGeometry x="674" y="92" width="58" height="22" as="geometry" />
        </mxCell>
        <mxCell id="JTRN2UEG_rgVW73hcwAd-36" value="Lo1012" style="ellipse;whiteSpace=wrap;html=1;aspect=fixed;fillColor=#60a917;strokeColor=#2D7600;fontSize=6;fontColor=#ffffff;" parent="JTRN2UEG_rgVW73hcwAd-7" vertex="1">
          <mxGeometry x="-205" y="190" width="28" height="28" as="geometry" />
        </mxCell>
        <mxCell id="JTRN2UEG_rgVW73hcwAd-37" value="Lo1012" style="ellipse;whiteSpace=wrap;html=1;aspect=fixed;fillColor=#60a917;strokeColor=#2D7600;fontSize=6;fontColor=#ffffff;" parent="JTRN2UEG_rgVW73hcwAd-7" vertex="1">
          <mxGeometry x="-205" y="282" width="28" height="28" as="geometry" />
        </mxCell>
        <mxCell id="JTRN2UEG_rgVW73hcwAd-38" value="ATM&lt;br&gt;&lt;font style=&quot;font-size: 7px;&quot;&gt;AS: 65102&lt;/font&gt;" style="shape=process;whiteSpace=wrap;html=1;backgroundOutline=1;fillColor=#60a917;strokeColor=#2D7600;fontSize=9;rotation=0;fontColor=#ffffff;" parent="JTRN2UEG_rgVW73hcwAd-7" vertex="1">
          <mxGeometry x="764" y="100" width="77" height="21" as="geometry" />
        </mxCell>
        <mxCell id="JTRN2UEG_rgVW73hcwAd-39" value="" style="endArrow=classic;html=1;rounded=0;fontSize=12;startSize=8;endSize=8;curved=1;fontColor=#60a917;fillColor=#60a917;strokeColor=#2D7600;" parent="JTRN2UEG_rgVW73hcwAd-7" edge="1">
          <mxGeometry width="50" height="50" relative="1" as="geometry">
            <mxPoint x="-394" y="307.6" as="sourcePoint" />
            <mxPoint x="-242" y="306" as="targetPoint" />
          </mxGeometry>
        </mxCell>
        <mxCell id="JTRN2UEG_rgVW73hcwAd-41" value="CL-INGRESS-ATM-LP-110&lt;div&gt;65000:10110&lt;/div&gt;" style="text;html=1;align=center;verticalAlign=middle;resizable=0;points=[];autosize=1;strokeColor=none;fillColor=none;fontSize=8;fontColor=#60a917;" parent="JTRN2UEG_rgVW73hcwAd-7" vertex="1">
          <mxGeometry x="-376" y="302" width="114" height="31" as="geometry" />
        </mxCell>
        <mxCell id="JTRN2UEG_rgVW73hcwAd-43" value="" style="endArrow=classic;html=1;rounded=0;fontSize=12;startSize=8;endSize=8;curved=1;fontColor=#60a917;fillColor=#60a917;strokeColor=#2D7600;entryX=0.045;entryY=1.007;entryDx=0;entryDy=0;entryPerimeter=0;" parent="JTRN2UEG_rgVW73hcwAd-7" edge="1">
          <mxGeometry width="50" height="50" relative="1" as="geometry">
            <mxPoint x="-378" y="142" as="sourcePoint" />
            <mxPoint x="-240.16499999999996" y="141.17500000000018" as="targetPoint" />
          </mxGeometry>
        </mxCell>
        <mxCell id="JTRN2UEG_rgVW73hcwAd-44" value="10.2.254.0/24&lt;br&gt;via Null0" style="text;html=1;align=center;verticalAlign=middle;resizable=0;points=[];autosize=1;strokeColor=none;fillColor=none;fontSize=11;fontColor=#60a917;" parent="JTRN2UEG_rgVW73hcwAd-7" vertex="1">
          <mxGeometry x="-594" y="195.5" width="85" height="38" as="geometry" />
        </mxCell>
        <mxCell id="JTRN2UEG_rgVW73hcwAd-45" value="CL-INGRESS-ATM-LP-090&lt;div&gt;65000:10090&lt;/div&gt;" style="text;html=1;align=center;verticalAlign=middle;resizable=0;points=[];autosize=1;strokeColor=none;fillColor=none;fontSize=8;fontColor=#60a917;" parent="JTRN2UEG_rgVW73hcwAd-7" vertex="1">
          <mxGeometry x="-369" y="137" width="114" height="31" as="geometry" />
        </mxCell>
        <mxCell id="wfa3xw_gp_wo1UcQLkco-1" value="EVPN IRB" parent="0" />
        <mxCell id="wfa3xw_gp_wo1UcQLkco-2" value="IRB" style="shape=process;whiteSpace=wrap;html=1;backgroundOutline=1;fillColor=#0050ef;strokeColor=#001DBC;fontSize=9;rotation=0;fontColor=#ffffff;" vertex="1" parent="wfa3xw_gp_wo1UcQLkco-1">
          <mxGeometry x="-241" y="-30" width="77" height="21" as="geometry" />
        </mxCell>
        <mxCell id="wfa3xw_gp_wo1UcQLkco-3" value="IRB" style="shape=process;whiteSpace=wrap;html=1;backgroundOutline=1;fillColor=#0050ef;strokeColor=#001DBC;fontSize=9;rotation=0;fontColor=#ffffff;" vertex="1" parent="wfa3xw_gp_wo1UcQLkco-1">
          <mxGeometry x="-241" y="63" width="77" height="21" as="geometry" />
        </mxCell>
        <mxCell id="wfa3xw_gp_wo1UcQLkco-4" value="IRB" style="shape=process;whiteSpace=wrap;html=1;backgroundOutline=1;fillColor=#0050ef;strokeColor=#001DBC;fontSize=9;rotation=0;fontColor=#ffffff;" vertex="1" parent="wfa3xw_gp_wo1UcQLkco-1">
          <mxGeometry x="-447" y="12" width="77" height="21" as="geometry" />
        </mxCell>
        <mxCell id="wfa3xw_gp_wo1UcQLkco-8" value="IRB" style="shape=process;whiteSpace=wrap;html=1;backgroundOutline=1;fillColor=#0050ef;strokeColor=#001DBC;fontSize=9;rotation=0;fontColor=#ffffff;" vertex="1" parent="wfa3xw_gp_wo1UcQLkco-1">
          <mxGeometry x="-461" y="136.5" width="77" height="21" as="geometry" />
        </mxCell>
        <mxCell id="wfa3xw_gp_wo1UcQLkco-9" value="IRB" style="shape=process;whiteSpace=wrap;html=1;backgroundOutline=1;fillColor=#0050ef;strokeColor=#001DBC;fontSize=9;rotation=0;fontColor=#ffffff;" vertex="1" parent="wfa3xw_gp_wo1UcQLkco-1">
          <mxGeometry x="-230" y="155" width="77" height="21" as="geometry" />
        </mxCell>
        <mxCell id="wfa3xw_gp_wo1UcQLkco-10" value="1103" style="ellipse;whiteSpace=wrap;html=1;fontSize=7;fillColor=#0050ef;strokeColor=#001DBC;fontColor=#ffffff;" vertex="1" parent="wfa3xw_gp_wo1UcQLkco-1">
          <mxGeometry x="-271" y="157.5" width="44" height="20" as="geometry" />
        </mxCell>
        <mxCell id="wfa3xw_gp_wo1UcQLkco-11" value="Lo1011" style="ellipse;whiteSpace=wrap;html=1;aspect=fixed;fillColor=#0050ef;strokeColor=#001DBC;fontSize=6;fontColor=#ffffff;" vertex="1" parent="wfa3xw_gp_wo1UcQLkco-1">
          <mxGeometry x="-406" y="113" width="28" height="28" as="geometry" />
        </mxCell>
        <mxCell id="wfa3xw_gp_wo1UcQLkco-12" value="1103" style="ellipse;whiteSpace=wrap;html=1;fontSize=7;fillColor=#0050ef;strokeColor=#001DBC;fontColor=#ffffff;" vertex="1" parent="wfa3xw_gp_wo1UcQLkco-1">
          <mxGeometry x="-384" y="141" width="44" height="20" as="geometry" />
        </mxCell>
        <mxCell id="wfa3xw_gp_wo1UcQLkco-13" value="1101" style="ellipse;whiteSpace=wrap;html=1;fontSize=7;fillColor=#0050ef;strokeColor=#001DBC;fontColor=#ffffff;" vertex="1" parent="wfa3xw_gp_wo1UcQLkco-1">
          <mxGeometry x="-284.5" y="-28" width="44" height="20" as="geometry" />
        </mxCell>
        <mxCell id="wfa3xw_gp_wo1UcQLkco-14" value="Lo1011" style="ellipse;whiteSpace=wrap;html=1;aspect=fixed;fillColor=#0050ef;strokeColor=#001DBC;fontSize=6;fontColor=#ffffff;" vertex="1" parent="wfa3xw_gp_wo1UcQLkco-1">
          <mxGeometry x="-258" y="-58" width="28" height="28" as="geometry" />
        </mxCell>
        <mxCell id="wfa3xw_gp_wo1UcQLkco-15" value="1101" style="ellipse;whiteSpace=wrap;html=1;fontSize=7;fillColor=#0050ef;strokeColor=#001DBC;fontColor=#ffffff;" vertex="1" parent="wfa3xw_gp_wo1UcQLkco-1">
          <mxGeometry x="-286" y="62" width="44" height="20" as="geometry" />
        </mxCell>
        <mxCell id="wfa3xw_gp_wo1UcQLkco-16" value="L2VLAN" style="shape=process;whiteSpace=wrap;html=1;backgroundOutline=1;fillColor=#d80073;strokeColor=#A50040;fontSize=9;rotation=0;fontColor=#ffffff;" vertex="1" parent="wfa3xw_gp_wo1UcQLkco-1">
          <mxGeometry x="-447" y="38" width="77" height="21" as="geometry" />
        </mxCell>
        <mxCell id="wfa3xw_gp_wo1UcQLkco-17" value="L2VLAN" style="shape=process;whiteSpace=wrap;html=1;backgroundOutline=1;fillColor=#d80073;strokeColor=#A50040;fontSize=9;rotation=0;fontColor=#ffffff;" vertex="1" parent="wfa3xw_gp_wo1UcQLkco-1">
          <mxGeometry x="-461" y="162" width="77" height="21" as="geometry" />
        </mxCell>
        <mxCell id="wfa3xw_gp_wo1UcQLkco-18" value="1199" style="ellipse;whiteSpace=wrap;html=1;fontSize=7;fillColor=#d80073;strokeColor=#A50040;fontColor=#ffffff;" vertex="1" parent="wfa3xw_gp_wo1UcQLkco-1">
          <mxGeometry x="-384" y="163" width="44" height="20" as="geometry" />
        </mxCell>
        <mxCell id="wfa3xw_gp_wo1UcQLkco-19" value="1199" style="ellipse;whiteSpace=wrap;html=1;fontSize=7;fillColor=#d80073;strokeColor=#A50040;fontColor=#ffffff;" vertex="1" parent="wfa3xw_gp_wo1UcQLkco-1">
          <mxGeometry x="-271" y="177.5" width="44" height="20" as="geometry" />
        </mxCell>
        <mxCell id="wfa3xw_gp_wo1UcQLkco-20" value="1199" style="ellipse;whiteSpace=wrap;html=1;fontSize=7;fillColor=#d80073;strokeColor=#A50040;fontColor=#ffffff;" vertex="1" parent="wfa3xw_gp_wo1UcQLkco-1">
          <mxGeometry x="-284" y="82" width="44" height="20" as="geometry" />
        </mxCell>
        <mxCell id="wfa3xw_gp_wo1UcQLkco-21" value="1199" style="ellipse;whiteSpace=wrap;html=1;fontSize=7;fillColor=#d80073;strokeColor=#A50040;fontColor=#ffffff;" vertex="1" parent="wfa3xw_gp_wo1UcQLkco-1">
          <mxGeometry x="-283.5" y="-8" width="44" height="20" as="geometry" />
        </mxCell>
        <mxCell id="wfa3xw_gp_wo1UcQLkco-22" value="Lo1011" style="ellipse;whiteSpace=wrap;html=1;aspect=fixed;fillColor=#0050ef;strokeColor=#001DBC;fontSize=6;fontColor=#ffffff;" vertex="1" parent="wfa3xw_gp_wo1UcQLkco-1">
          <mxGeometry x="-255" y="38" width="28" height="28" as="geometry" />
        </mxCell>
        <mxCell id="wfa3xw_gp_wo1UcQLkco-23" value="1101" style="ellipse;whiteSpace=wrap;html=1;fontSize=7;fillColor=#0050ef;strokeColor=#001DBC;fontColor=#ffffff;" vertex="1" parent="wfa3xw_gp_wo1UcQLkco-1">
          <mxGeometry x="-373" y="16" width="44" height="20" as="geometry" />
        </mxCell>
        <mxCell id="wfa3xw_gp_wo1UcQLkco-24" value="1199" style="ellipse;whiteSpace=wrap;html=1;fontSize=7;fillColor=#d80073;strokeColor=#A50040;fontColor=#ffffff;" vertex="1" parent="wfa3xw_gp_wo1UcQLkco-1">
          <mxGeometry x="-371" y="36" width="44" height="20" as="geometry" />
        </mxCell>
      </root>
    </mxGraphModel>
  </diagram>
</mxfile>
